<svg width="22" height="34" viewBox="0 0 22 34" fill="none" xmlns="http://www.w3.org/2000/svg">
<path d="M8.70711 0.292892C8.31658 -0.0976314 7.68342 -0.0976315 7.29289 0.292892L0.928933 6.65685C0.538408 7.04738 0.538408 7.68054 0.928933 8.07107C1.31946 8.46159 1.95262 8.46159 2.34315 8.07107L8 2.41421L13.6569 8.07107C14.0474 8.46159 14.6805 8.46159 15.0711 8.07107C15.4616 7.68054 15.4616 7.04738 15.0711 6.65685L8.70711 0.292892ZM9 18L9 1L7 1L7 18L9 18Z" fill="#1059A8"/>
<path d="M14.7071 33.7071C14.3166 34.0976 13.6834 34.0976 13.2929 33.7071L6.92893 27.3431C6.53841 26.9526 6.53841 26.3195 6.92893 25.9289C7.31946 25.5384 7.95262 25.5384 8.34315 25.9289L14 31.5858L19.6569 25.9289C20.0474 25.5384 20.6805 25.5384 21.0711 25.9289C21.4616 26.3195 21.4616 26.9526 21.0711 27.3431L14.7071 33.7071ZM15 16L15 33L13 33L13 16L15 16Z" fill="#1059A8"/>
</svg>
