<svg width="50" height="50" xmlns="http://www.w3.org/2000/svg" xmlns:xlink="http://www.w3.org/1999/xlink" version="1.0" preserveAspectRatio="xMidYMid meet">
 <g id="Layer_1">
  <title>Layer 1</title>
  <g stroke="null">
   <path stroke="null" fill="url(#svg_7)" fill-rule="evenodd" d="m47.3761,30.5737l0.18192,0.06064c0.0194,0.90226 0.27846,1.8688 0.48512,2.66815c0.35341,1.36688 0.31581,2.69684 0.66704,4.06287c0.19059,0.7412 0.2183,1.56142 0.42448,2.36495c0.16161,0.63011 0.34322,1.31861 0.36384,2.06175l-0.06064,0c-0.3075,-0.28234 -2.50788,-1.37743 -2.97135,-1.45536c-0.79196,1.19849 -2.4165,2.65457 -3.57775,3.51711c-0.66486,0.49385 -1.30157,1.10971 -2.00111,1.57664c-2.01324,1.34287 -4.34957,2.38181 -6.8523,3.21391c-1.29454,0.43054 -2.557,0.45595 -4.00223,0.78832c-1.11135,0.2556 -3.56271,0.47299 -4.85119,0.18192l-1.45536,-0.06064c-1.21425,-0.28161 -2.49424,-0.29429 -3.63839,-0.66704c-6.06398,-1.97552 -10.59651,-4.73761 -13.94716,-9.39918c-0.40071,-0.55746 -0.90165,-1.10916 -1.27344,-1.69792c-0.56716,-0.89826 -0.9666,-1.80707 -1.45536,-2.78943c-0.36238,-0.72841 -0.90153,-1.57245 -1.03088,-2.48623l0.06064,0l0,0.12128c0.36505,0.39416 0.49688,0.986 0.78832,1.45536c0.49925,0.80402 1.0729,1.60271 1.63728,2.36495c1.7423,2.35283 4.23873,4.02649 6.79166,5.57887c1.37543,0.83641 3.12865,1.25524 4.79055,1.75856c2.0076,0.60804 6.37598,0.8224 8.61086,0.24256c3.01604,-0.78225 5.47784,-1.6494 7.7619,-3.09263c0.95471,-0.60325 1.73078,-1.45924 2.60751,-2.12239a11.63303,11.63303 0 0 0 2.60751,-2.78943l-0.06064,0c-0.7298,-0.55504 -2.09304,-0.71658 -2.72879,-1.33408l0.12128,0c0.21752,-0.15712 0.5007,-0.13705 0.78832,-0.24256c0.75648,-0.27749 1.54795,-0.45346 2.36495,-0.72768c1.94175,-0.6517 3.91873,-1.30297 5.76079,-2.06175c0.7979,-0.32867 1.61769,-0.5417 2.36495,-0.84896c0.26124,-0.10739 0.52975,-0.08544 0.72768,-0.24256z" class="cls-1" data-name="Градиентная заливка 2" id="svg_6"/>
   <path stroke="null" fill="url(#svg_5)" fill-rule="evenodd" d="m23.66592,0.25378c7.40273,-0.14184 12.27144,1.75631 16.49404,4.72991c1.48095,1.04301 2.97851,2.14228 4.06287,3.57775c0.4015,0.53145 0.99565,0.97291 1.39472,1.516c0.76061,1.03506 1.37392,2.08492 2.06175,3.21391c0.24523,0.40253 0.593,0.83683 0.72768,1.33408l-0.06064,0c-2.09662,-3.57423 -5.83962,-6.48925 -9.82365,-8.18638c-1.08861,-0.46371 -2.16139,-0.63065 -3.39583,-0.97024c-1.98426,-0.54576 -5.84065,-0.80348 -8.0651,-0.24256c-1.34505,0.33916 -2.73783,0.58299 -3.94159,1.09152c-1.68918,0.71355 -3.30705,1.54844 -4.72991,2.54687c-0.69924,0.49064 -1.31419,1.11941 -2.00111,1.63728c-0.70257,0.52963 -1.22353,1.355 -1.8192,2.00111c-0.58214,0.63175 -1.03185,1.32195 -1.516,2.06175c-0.09739,0.14881 -0.52969,0.60901 -0.42448,0.72768c0.56959,0.4226 2.11027,0.66267 2.85007,0.97024c-0.06191,0.04851 -0.01662,0.02153 -0.12128,0.06064c-0.38719,0.33958 -1.01602,0.44776 -1.516,0.66704c-1.03458,0.45377 -2.0794,0.92106 -3.15327,1.39472c-0.60325,0.26609 -1.23414,0.66437 -1.8192,0.97024c-1.01074,0.52835 -2.02003,0.92931 -3.03199,1.45536c-0.64278,0.33413 -1.32765,0.83155 -2.06175,1.03088l0,-0.12128c-0.20011,-0.27852 -0.18089,-0.66625 -0.3032,-1.03088c-0.2317,-0.69069 -0.41708,-1.43522 -0.66704,-2.18303c-0.52011,-1.5559 -0.91863,-3.17753 -1.45536,-4.79055c-0.28331,-0.8515 -0.76121,-1.82223 -0.84896,-2.78943l0.06064,0c0.48973,0.3736 1.75292,0.67619 2.36495,0.9096c0.20011,0.07628 0.6352,0.24032 0.72768,0.18192c0.35711,-0.34801 0.55789,-0.85939 0.84896,-1.27344c0.44067,-0.62641 0.98843,-1.20006 1.45536,-1.8192c0.38809,-0.51441 1.17381,-1.24118 1.69792,-1.63728c0.49725,-0.37597 0.88995,-0.95665 1.39472,-1.33408c1.69695,-1.26883 3.53743,-2.56137 5.57887,-3.45647c1.85558,-0.81373 3.84384,-1.33353 6.00334,-1.87984l2.24367,-0.3032c0.26639,-0.05858 0.60434,0.05615 0.78832,-0.06064z" class="cls-2" data-name="Градиентная заливка 1" id="svg_4"/>
   <path stroke="null" fill="#f34141" fill-rule="evenodd" d="m32.1555,20.08301l2.30431,0q-0.48512,3.36515 -0.97024,6.73102l3.03199,0l0,-5.63951l2.30431,0l0,5.63951l1.09152,0l0,2.30431l-1.09152,0l0,2.24367l-2.30431,0l0,-2.24367l-5.63951,0l0,-0.06064c0.1499,-0.1784 0.04287,-0.64078 0.12128,-0.9096c0.10794,-0.3699 0.13529,-0.90299 0.24256,-1.27344l0,-0.42448c0.19326,-0.66522 0.1741,-1.52273 0.36384,-2.18303l0,-0.48512c0.10721,-0.37039 0.13529,-0.90311 0.24256,-1.27344l0,-0.42448l0.06064,0l0,-0.42448l0.06064,0l0,-0.48512a5.52659,5.52659 0 0 0 0.18192,-1.09152z" class="cls-3" data-name="Заливка цветом 3" id="svg_3"/>
   <path stroke="null" fill="#f34141" fill-rule="evenodd" d="m22.45313,20.08301l3.27455,0c0.43054,0 1.00244,-0.03936 1.33408,0.06064l0.3032,0l0,0.06064l0.36384,0.06064l0,0.06064l0.12128,0l0,0.06064l0.18192,0l0.06064,0.12128l0.24256,0.06064l0.06064,0.12128l0.12128,0l0.12128,0.18192l0.12128,0l0.18192,0.24256l0.12128,0.06064l0,0.12128l0.24256,0.18192l0,0.12128l0.12128,0.06064l0.12128,0.36384l0.06064,0l0.06064,0.24256l0.06064,0l0,0.18192c0.09575,0.25256 0.30168,0.97363 0.18192,1.39472l-0.06064,0q-0.03032,0.3032 -0.06064,0.6064l-0.06064,0q-0.03032,0.18192 -0.06064,0.36384l-0.06064,0l-0.06064,0.24256l-0.06064,0l0,0.12128l-0.12128,0.06064l0,0.12128l-0.12128,0.06064l0,0.12128l-0.24256,0.18192l0,0.12128l-0.12128,0.06064l0,0.06064l-0.12128,0l-0.24256,0.3032l-0.12128,0l-0.06064,0.12128l-0.12128,0l0,0.06064l-0.36384,0.12128l0,0.06064l-0.54576,0.12128l0,0.06064l-0.36384,0l0,0.06064l-1.8192,0l0,0.06064l-0.3032,0.06064l0,0.06064a0.49791,0.49791 0 0 1 -0.24256,0.12128c-0.0476,0.19029 -0.18738,0.27979 -0.24256,0.42448l0,0.3032c-0.0855,0.2821 -0.05894,0.77383 -0.06064,1.15216l5.33631,0l0,2.30431l-7.64062,0l0,-2.30431c0,-0.4152 -0.02886,-0.95568 0.06064,-1.27344q0.03032,-0.39416 0.06064,-0.78832c0.37184,-1.04301 1.07727,-1.81313 2.06175,-2.24367c0.46959,-0.20527 1.09212,-0.18192 1.75856,-0.18192l0.78832,0l0,-0.06064l0.24256,0l0,-0.06064l0.12128,0l0,-0.06064a0.50004,0.50004 0 0 1 0.24256,-0.12128a0.5588,0.5588 0 0 1 0.12128,-0.24256l0.06064,0l0,-0.18192l0.06064,0c0.05027,-0.12771 0.07635,-0.66807 0,-0.78832l-0.06064,0c-0.16912,-0.67917 -0.89559,-0.66704 -1.75856,-0.66704l-3.27455,0l0,-2.30431z" class="cls-3" data-name="Заливка цветом 2" id="svg_2"/>
   <path stroke="null" fill="#f57744" fill-rule="evenodd" d="m12.32627,20.08301l2.30431,0l0,5.51823l0.06064,0l0,-0.12128c0.2043,-0.12734 0.22958,-0.29495 0.36384,-0.48512l0.18192,-0.12128l0,-0.12128l0.18192,-0.12128l0,-0.12128l0.18192,-0.12128l0,-0.12128l0.18192,-0.12128l0.06064,-0.18192l0.12128,-0.06064l0,-0.12128l0.12128,-0.06064l0,-0.12128l0.12128,-0.06064l0.06064,-0.18192l0.18192,-0.12128l0,-0.12128l0.18192,-0.12128l0,-0.12128l0.18192,-0.12128l0,-0.12128l0.18192,-0.12128l0,-0.12128l0.18192,-0.12128l0,-0.12128l0.18192,-0.12128l0,-0.12128l0.18192,-0.12128l0,-0.12128l0.18192,-0.12128l0,-0.12128l0.18192,-0.12128l0,-0.12128l0.18192,-0.12128l0.06064,-0.18192l0.12128,-0.06064l0,-0.12128l0.12128,-0.06064l0,-0.12128l0.18192,-0.12128l0,-0.12128l0.18192,-0.12128l0,-0.06064l2.60751,0a0.46723,0.46723 0 0 1 -0.12128,0.24256l-0.06064,0l-0.06064,0.18192l-0.12128,0.06064l0,0.12128l-0.18192,0.12128l0,0.12128l-0.18192,0.12128l0,0.12128l-0.18192,0.12128l0,0.12128l-0.18192,0.12128l0,0.12128l-0.18192,0.12128l0,0.12128l-0.18192,0.12128l0,0.12128l-0.18192,0.12128l0,0.12128l-0.18192,0.12128l-0.06064,0.18192l-0.12128,0.06064l0,0.12128l-0.12128,0.06064l0,0.12128l-0.18192,0.12128l0,0.12128l-0.18192,0.12128l0,0.12128l-0.18192,0.12128l0,0.12128l-0.18192,0.12128l0,0.12128l-0.18192,0.12128l0,0.12128l-0.18192,0.12128c-0.11346,0.16003 -0.13832,0.31878 -0.3032,0.42448a4.25085,4.25085 0 0 0 0.24256,0.42448l0,0.12128l0.12128,0.06064l0,0.12128l0.06064,0l0,0.12128l0.06064,0l0,0.12128l0.06064,0l0,0.12128l0.06064,0l0,0.12128l0.12128,0.06064l0,0.12128l0.06064,0l0,0.12128l0.06064,0l0,0.12128l0.06064,0l0,0.12128l0.12128,0.06064l0,0.12128l0.06064,0l0,0.12128l0.06064,0l0,0.12128l0.06064,0l0,0.12128l0.06064,0l0,0.12128l0.12128,0.06064l0,0.12128l0.06064,0l0,0.12128l0.06064,0l0,0.12128l0.06064,0l0,0.12128l0.06064,0l0,0.12128l0.12128,0.06064l0,0.12128l0.06064,0l0,0.12128l0.06064,0l0,0.12128l0.06064,0l0,0.12128l0.06064,0l0,0.12128l0.12128,0.06064l0,0.12128l0.06064,0l0,0.12128l0.06064,0l0,0.12128l0.06064,0l0,0.12128l0.06064,0l0,0.12128l0.12128,0.06064l0,0.12128l0.06064,0l0,0.12128l0.06064,0l0,0.12128l0.06064,0l0,0.12128l0.06064,0l0,0.12128l0.12128,0.06064l0,0.12128l0.06064,0l0,0.12128l0.06064,0l0,0.12128l0.06064,0l0,0.12128l0.06064,0l0,0.12128l0.12128,0.06064l0,0.12128c0.10733,0.19059 0.24474,0.35614 0.3032,0.6064l-2.60751,0c-0.06361,-0.15051 -0.17264,-0.29435 -0.24256,-0.42448l0,-0.12128l-0.06064,0l-0.06064,-0.24256l-0.12128,-0.06064l0,-0.12128l-0.06064,0l0,-0.12128l-0.06064,0l0,-0.12128l-0.06064,0l0,-0.12128l-0.06064,0l0,-0.12128l-0.12128,-0.06064l-0.06064,-0.24256l-0.06064,0l-0.12128,-0.36384l-0.12128,-0.06064l0,-0.12128l-0.06064,0l0,-0.12128l-0.06064,0l0,-0.12128l-0.06064,0l0,-0.12128l-0.06064,0l0,-0.12128l-0.06064,0l0,-0.12128l-0.12128,-0.06064l0,-0.12128l-0.06064,0l0,-0.12128l-0.06064,0l0,-0.12128l-0.06064,0l0,-0.12128l-0.06064,0l0,-0.12128l-0.12128,-0.06064l-0.12128,-0.36384c-0.0872,-0.16215 -0.21861,-0.30884 -0.3032,-0.48512c-0.12571,0.10375 -0.14499,0.2257 -0.24256,0.36384l-0.18192,0.12128l0,0.12128l-0.18192,0.12128l0,0.12128l-0.18192,0.12128l0,0.12128l-0.18192,0.12128l0,0.12128l-0.18192,0.12128l0,0.12128l-0.18192,0.12128l0,0.12128l-0.18192,0.12128l0,0.12128l-0.18192,0.12128l0,2.30431l-2.30431,0l0,-11.27901z" class="cls-4" data-name="Заливка цветом 1" id="svg_1"/>
  </g>
 </g>
 <defs>
  <linearGradient gradientTransform="matrix(0.06063985079526901,0,0,0.06063985079526901,0.501503050327301,0.2537800073623657)" gradientUnits="userSpaceOnUse" y2="657.395" x2="31" y1="658.886" x1="808" id="svg_7">
   <stop stop-color="#f34141" offset="0"/>
   <stop stop-color="#f7b048" offset="1"/>
  </linearGradient>
  <linearGradient xlink:href="#svg_7" y2="356" x2="229.302" y1="-0.125" x1="560.698" id="svg_5"/>
 </defs>
</svg>