<svg width="128" height="63" viewBox="0 0 128 63" fill="none" xmlns="http://www.w3.org/2000/svg">
<g clip-path="url(#clip0_1_10)">
<mask id="mask0_1_10" style="mask-type:luminance" maskUnits="userSpaceOnUse" x="0" y="0" width="128" height="63">
<path d="M128 0H0V63H128V0Z" fill="white"/>
</mask>
<g mask="url(#mask0_1_10)">
<path d="M116.673 -2H11.3274C5.07146 -2 0 2.47715 0 8V51C0 56.5228 5.07146 61 11.3274 61H116.673C122.929 61 128 56.5228 128 51V8C128 2.47715 122.929 -2 116.673 -2Z" fill="white" fill-opacity="0.12"/>
<path d="M59.8267 38H57.4972L62.7315 23.4545H65.267L70.5014 38H68.1719L64.0597 26.0966H63.946L59.8267 38ZM60.2173 32.304H67.7741V34.1506H60.2173V32.304ZM70.1658 25.3438V23.4545H81.4229V25.3438H76.8846V38H74.6971V25.3438H70.1658ZM95.9205 30.7273C95.9205 32.2803 95.6364 33.6155 95.0682 34.733C94.5 35.8456 93.7211 36.7027 92.7315 37.304C91.7467 37.9006 90.6269 38.1989 89.3722 38.1989C88.1127 38.1989 86.9882 37.9006 85.9986 37.304C85.0137 36.7027 84.2372 35.8433 83.669 34.7259C83.1009 33.6084 82.8168 32.2756 82.8168 30.7273C82.8168 29.1742 83.1009 27.8414 83.669 26.7287C84.2372 25.6113 85.0137 24.7543 85.9986 24.1577C86.9882 23.5563 88.1127 23.2557 89.3722 23.2557C90.6269 23.2557 91.7467 23.5563 92.7315 24.1577C93.7211 24.7543 94.5 25.6113 95.0682 26.7287C95.6364 27.8414 95.9205 29.1742 95.9205 30.7273ZM93.7472 30.7273C93.7472 29.5436 93.5554 28.5469 93.1719 27.7372C92.7931 26.9228 92.2723 26.3073 91.6094 25.8906C90.9512 25.4692 90.2055 25.2585 89.3722 25.2585C88.5341 25.2585 87.786 25.4692 87.1278 25.8906C86.4697 26.3073 85.9489 26.9228 85.5653 27.7372C85.1866 28.5469 84.9972 29.5436 84.9972 30.7273C84.9972 31.911 85.1866 32.91 85.5653 33.7244C85.9489 34.5341 86.4697 35.1496 87.1278 35.571C87.786 35.9877 88.5341 36.196 89.3722 36.196C90.2055 36.196 90.9512 35.9877 91.6094 35.571C92.2723 35.1496 92.7931 34.5341 93.1719 33.7244C93.5554 32.91 93.7472 31.911 93.7472 30.7273ZM98.6566 23.4545H101.32L105.951 34.7614H106.121L110.752 23.4545H113.415V38H111.327V27.4744H111.192L106.902 37.9787H105.169L100.88 27.4673H100.745V38H98.6566V23.4545Z" fill="black"/>
<mask id="mask1_1_10" style="mask-type:luminance" maskUnits="userSpaceOnUse" x="13" y="11" width="35" height="37">
<path d="M48 11H13V48H48V11Z" fill="white"/>
</mask>
<g mask="url(#mask1_1_10)">
<path d="M30.5 48C40.165 48 48 39.7173 48 29.5C48 19.2827 40.165 11 30.5 11C20.835 11 13 19.2827 13 29.5C13 39.7173 20.835 48 30.5 48Z" fill="#2E3148"/>
<path d="M30.5 40.2346C36.1081 40.2346 40.6544 35.4285 40.6544 29.5C40.6544 23.5715 36.1081 18.7654 30.5 18.7654C24.8919 18.7654 20.3457 23.5715 20.3457 29.5C20.3457 35.4285 24.8919 40.2346 30.5 40.2346Z" fill="#1B1E36"/>
<path d="M30.536 13.3602C28.647 13.3602 27.1152 20.6033 27.1152 29.5382C27.1152 38.4731 28.647 45.7162 30.536 45.7162C32.425 45.7162 33.9568 38.4731 33.9568 29.5382C33.9568 20.6033 32.425 13.3602 30.536 13.3602ZM30.7722 44.8032C30.5562 45.1078 30.3401 44.8793 30.3401 44.8793C29.4702 43.8137 29.0352 41.834 29.0352 41.834C27.5135 36.6571 27.8757 25.5419 27.8757 25.5419C28.5908 16.7175 29.8917 14.633 30.3344 14.1702C30.3796 14.1229 30.4391 14.0941 30.5025 14.0887C30.5658 14.0832 30.629 14.1016 30.6808 14.1406C31.3231 14.6217 31.8618 16.6339 31.8618 16.6339C33.4526 22.8767 33.3086 28.7388 33.3086 28.7388C33.4526 33.8397 32.5114 39.5495 32.5114 39.5495C31.7869 43.8889 30.7722 44.8032 30.7722 44.8032Z" fill="#6F7390"/>
<path d="M43.8101 21.4871C42.8696 19.7543 36.1648 21.9545 28.8301 26.4007C21.4953 30.8469 16.3215 35.8563 17.2613 37.5883C18.2011 39.3204 24.9066 37.121 32.2413 32.6747C39.5761 28.2285 44.7499 23.2192 43.8101 21.4871ZM18.129 37.3507C17.769 37.3027 17.8503 36.9898 17.8503 36.9898C18.292 35.6621 19.6976 34.278 19.6976 34.278C23.1896 30.3063 32.4907 25.1072 32.4907 25.1072C40.0862 21.3714 42.4455 21.529 43.044 21.7032C43.1054 21.7213 43.1588 21.7619 43.1947 21.8176C43.2306 21.8734 43.2466 21.9407 43.24 22.0078C43.168 22.8366 41.7816 24.3314 41.7816 24.3314C37.4539 28.8985 32.572 31.6842 32.572 31.6842C28.4584 34.3556 23.305 36.3327 23.305 36.3327C19.3837 37.8265 18.129 37.3507 18.129 37.3507Z" fill="#6F7390"/>
<path d="M43.7769 37.6461C44.7247 35.9179 39.5639 30.8856 32.2549 26.4059C24.9459 21.9262 18.242 19.6988 17.2951 21.43C16.3481 23.1611 21.5081 28.1905 28.8213 32.6701C36.1344 37.1498 42.8299 39.3774 43.7769 37.6461ZM17.9231 22.0978C17.7831 21.7469 18.0786 21.6624 18.0786 21.6624C19.3871 21.4011 21.225 21.9964 21.225 21.9964C26.2251 23.2001 35.141 29.1041 35.141 29.1041C42.0056 34.1821 43.0584 36.4188 43.2162 37.0538C43.2322 37.1189 43.226 37.1879 43.1986 37.2486C43.1712 37.3094 43.1244 37.3579 43.0664 37.3857C42.3506 37.7322 40.4334 37.216 40.4334 37.216C34.5244 35.5411 29.7987 32.4723 29.7987 32.4723C25.5527 30.0513 21.3541 26.3261 21.3541 26.3261C18.1638 23.4865 17.9241 22.1016 17.9241 22.1016L17.9231 22.0978Z" fill="#6F7390"/>
<path d="M30.5 31.4033C31.4943 31.4033 32.3004 30.5511 32.3004 29.5C32.3004 28.4488 31.4943 27.5967 30.5 27.5967C29.5057 27.5967 28.6996 28.4488 28.6996 29.5C28.6996 30.5511 29.5057 31.4033 30.5 31.4033Z" fill="#B7B9C8"/>
<path d="M37.8816 23.3333C38.4584 23.3333 38.9259 22.822 38.9259 22.1913C38.9259 21.5606 38.4584 21.0493 37.8816 21.0493C37.3049 21.0493 36.8374 21.5606 36.8374 22.1913C36.8374 22.822 37.3049 23.3333 37.8816 23.3333Z" fill="#B7B9C8"/>
<path d="M20.7417 27.2161C21.3184 27.2161 21.786 26.7048 21.786 26.0741C21.786 25.4434 21.3184 24.9321 20.7417 24.9321C20.165 24.9321 19.6974 25.4434 19.6974 26.0741C19.6974 26.7048 20.165 27.2161 20.7417 27.2161Z" fill="#B7B9C8"/>
<path d="M28.3755 41.2243C28.9522 41.2243 29.4198 40.713 29.4198 40.0823C29.4198 39.4516 28.9522 38.9403 28.3755 38.9403C27.7988 38.9403 27.3312 39.4516 27.3312 40.0823C27.3312 40.713 27.7988 41.2243 28.3755 41.2243Z" fill="#B7B9C8"/>
</g>
</g>
</g>
<defs>
<clipPath id="clip0_1_10">
<rect width="128" height="63" fill="white"/>
</clipPath>
</defs>
</svg>
