<svg width="128" height="63" viewBox="0 0 128 63" fill="none" xmlns="http://www.w3.org/2000/svg">
<g clip-path="url(#clip0_1_27)">
<mask id="mask0_1_27" style="mask-type:luminance" maskUnits="userSpaceOnUse" x="0" y="0" width="128" height="63">
<path d="M128 0H0V63H128V0Z" fill="white"/>
</mask>
<g mask="url(#mask0_1_27)">
<path d="M118 0H10C4.47715 0 0 4.47715 0 10V53C0 58.5228 4.47715 63 10 63H118C123.523 63 128 58.5228 128 53V10C128 4.47715 123.523 0 118 0Z" fill="#3C3D3F" fill-opacity="0.12"/>
<path d="M64.3026 39H61.4901L66.6108 24.4545H69.8636L74.9915 39H72.179L68.294 27.4375H68.1804L64.3026 39ZM64.3949 33.2969H72.0653V35.4134H64.3949V33.2969ZM74.5103 26.6634V24.4545H86.1154V26.6634H81.6197V39H79.006V26.6634H74.5103ZM100.705 31.7273C100.705 33.2945 100.412 34.6368 99.8246 35.7543C99.2422 36.867 98.4467 37.7192 97.4382 38.3111C96.4344 38.9029 95.2957 39.1989 94.022 39.1989C92.7483 39.1989 91.6072 38.9029 90.5987 38.3111C89.5949 37.7145 88.7995 36.8598 88.2124 35.7472C87.63 34.6297 87.3388 33.2898 87.3388 31.7273C87.3388 30.16 87.63 28.8201 88.2124 27.7074C88.7995 26.59 89.5949 25.7353 90.5987 25.1435C91.6072 24.5516 92.7483 24.2557 94.022 24.2557C95.2957 24.2557 96.4344 24.5516 97.4382 25.1435C98.4467 25.7353 99.2422 26.59 99.8246 27.7074C100.412 28.8201 100.705 30.16 100.705 31.7273ZM98.0561 31.7273C98.0561 30.6241 97.8833 29.6937 97.5376 28.9361C97.1967 28.1738 96.7232 27.5985 96.1172 27.2102C95.5111 26.8172 94.8127 26.6207 94.022 26.6207C93.2313 26.6207 92.5329 26.8172 91.9268 27.2102C91.3208 27.5985 90.8449 28.1738 90.4993 28.9361C90.1584 29.6937 89.9879 30.6241 89.9879 31.7273C89.9879 32.8305 90.1584 33.7633 90.4993 34.5256C90.8449 35.2831 91.3208 35.8584 91.9268 36.2514C92.5329 36.6397 93.2313 36.8338 94.022 36.8338C94.8127 36.8338 95.5111 36.6397 96.1172 36.2514C96.7232 35.8584 97.1967 35.2831 97.5376 34.5256C97.8833 33.7633 98.0561 32.8305 98.0561 31.7273ZM103.196 24.4545H106.421L110.739 34.9943H110.909L115.228 24.4545H118.452V39H115.924V29.0071H115.789L111.769 38.9574H109.88L105.86 28.9858H105.725V39H103.196V24.4545Z" fill="black"/>
<mask id="mask1_1_27" style="mask-type:luminance" maskUnits="userSpaceOnUse" x="13" y="11" width="35" height="37">
<path d="M48 11H13V48H48V11Z" fill="white"/>
</mask>
<g mask="url(#mask1_1_27)">
<path d="M30.5 48C40.165 48 48 39.7173 48 29.5C48 19.2827 40.165 11 30.5 11C20.835 11 13 19.2827 13 29.5C13 39.7173 20.835 48 30.5 48Z" fill="#2E3148"/>
<path d="M30.5 40.2346C36.1081 40.2346 40.6544 35.4285 40.6544 29.5C40.6544 23.5715 36.1081 18.7654 30.5 18.7654C24.8919 18.7654 20.3457 23.5715 20.3457 29.5C20.3457 35.4285 24.8919 40.2346 30.5 40.2346Z" fill="#1B1E36"/>
<path d="M30.536 13.3602C28.647 13.3602 27.1152 20.6033 27.1152 29.5382C27.1152 38.4731 28.647 45.7162 30.536 45.7162C32.425 45.7162 33.9568 38.4731 33.9568 29.5382C33.9568 20.6033 32.425 13.3602 30.536 13.3602ZM30.7722 44.8032C30.5562 45.1078 30.3401 44.8793 30.3401 44.8793C29.4702 43.8137 29.0352 41.834 29.0352 41.834C27.5135 36.6571 27.8757 25.5419 27.8757 25.5419C28.5908 16.7175 29.8917 14.633 30.3344 14.1702C30.3796 14.1229 30.4391 14.0941 30.5025 14.0887C30.5658 14.0832 30.629 14.1016 30.6808 14.1406C31.3231 14.6217 31.8618 16.6339 31.8618 16.6339C33.4526 22.8767 33.3086 28.7388 33.3086 28.7388C33.4526 33.8397 32.5114 39.5495 32.5114 39.5495C31.7869 43.8889 30.7722 44.8032 30.7722 44.8032Z" fill="#6F7390"/>
<path d="M43.8101 21.4871C42.8696 19.7543 36.1648 21.9545 28.8301 26.4007C21.4953 30.8469 16.3215 35.8563 17.2613 37.5883C18.2011 39.3204 24.9066 37.121 32.2413 32.6747C39.5761 28.2285 44.7499 23.2192 43.8101 21.4871ZM18.129 37.3507C17.769 37.3027 17.8503 36.9898 17.8503 36.9898C18.292 35.6621 19.6976 34.278 19.6976 34.278C23.1896 30.3063 32.4907 25.1072 32.4907 25.1072C40.0862 21.3714 42.4455 21.529 43.044 21.7032C43.1054 21.7213 43.1588 21.7619 43.1947 21.8176C43.2306 21.8734 43.2466 21.9407 43.24 22.0078C43.168 22.8366 41.7816 24.3314 41.7816 24.3314C37.4539 28.8985 32.572 31.6842 32.572 31.6842C28.4584 34.3556 23.305 36.3327 23.305 36.3327C19.3837 37.8265 18.129 37.3507 18.129 37.3507Z" fill="#6F7390"/>
<path d="M43.7769 37.6461C44.7247 35.9179 39.5639 30.8856 32.2549 26.4059C24.9459 21.9262 18.242 19.6988 17.2951 21.43C16.3481 23.1611 21.5081 28.1905 28.8213 32.6701C36.1344 37.1498 42.8299 39.3774 43.7769 37.6461ZM17.9231 22.0978C17.7831 21.7469 18.0786 21.6624 18.0786 21.6624C19.3871 21.4011 21.225 21.9964 21.225 21.9964C26.2251 23.2001 35.141 29.1041 35.141 29.1041C42.0056 34.1821 43.0584 36.4188 43.2162 37.0538C43.2322 37.1189 43.226 37.1879 43.1986 37.2486C43.1712 37.3094 43.1244 37.3579 43.0664 37.3857C42.3506 37.7322 40.4334 37.216 40.4334 37.216C34.5244 35.5411 29.7987 32.4723 29.7987 32.4723C25.5527 30.0513 21.3541 26.3261 21.3541 26.3261C18.1638 23.4865 17.9241 22.1016 17.9241 22.1016L17.9231 22.0978Z" fill="#6F7390"/>
<path d="M30.5 31.4033C31.4943 31.4033 32.3004 30.5511 32.3004 29.5C32.3004 28.4488 31.4943 27.5967 30.5 27.5967C29.5057 27.5967 28.6996 28.4488 28.6996 29.5C28.6996 30.5511 29.5057 31.4033 30.5 31.4033Z" fill="#B7B9C8"/>
<path d="M37.8816 23.3333C38.4584 23.3333 38.9259 22.822 38.9259 22.1913C38.9259 21.5606 38.4584 21.0493 37.8816 21.0493C37.3049 21.0493 36.8374 21.5606 36.8374 22.1913C36.8374 22.822 37.3049 23.3333 37.8816 23.3333Z" fill="#B7B9C8"/>
<path d="M20.7417 27.2161C21.3184 27.2161 21.786 26.7048 21.786 26.0741C21.786 25.4434 21.3184 24.9321 20.7417 24.9321C20.165 24.9321 19.6974 25.4434 19.6974 26.0741C19.6974 26.7048 20.165 27.2161 20.7417 27.2161Z" fill="#B7B9C8"/>
<path d="M28.3755 41.2243C28.9522 41.2243 29.4198 40.713 29.4198 40.0823C29.4198 39.4516 28.9522 38.9403 28.3755 38.9403C27.7988 38.9403 27.3312 39.4516 27.3312 40.0823C27.3312 40.713 27.7988 41.2243 28.3755 41.2243Z" fill="#B7B9C8"/>
</g>
</g>
</g>
<defs>
<clipPath id="clip0_1_27">
<rect width="128" height="63" fill="white"/>
</clipPath>
</defs>
</svg>
