<svg width="128" height="63" viewBox="0 0 128 63" fill="none" xmlns="http://www.w3.org/2000/svg">
<g clip-path="url(#clip0_1_30)">
<mask id="mask0_1_30" style="mask-type:luminance" maskUnits="userSpaceOnUse" x="0" y="0" width="128" height="63">
<path d="M128 0H0V63H128V0Z" fill="white"/>
</mask>
<g mask="url(#mask0_1_30)">
<path d="M116.673 0H11.3274C5.07146 0 0 4.47715 0 10V53C0 58.5228 5.07146 63 11.3274 63H116.673C122.929 63 128 58.5228 128 53V10C128 4.47715 122.929 0 116.673 0Z" fill="white" fill-opacity="0.12"/>
<path d="M70.3068 38H65.598V23.4545H70.456C71.8812 23.4545 73.1051 23.7457 74.1278 24.3281C75.1506 24.9058 75.9342 25.7367 76.4787 26.821C77.0279 27.9006 77.3026 29.1955 77.3026 30.706C77.3026 32.2211 77.0256 33.5232 76.4716 34.6122C75.9223 35.7012 75.1269 36.5393 74.0852 37.1264C73.0436 37.7088 71.7841 38 70.3068 38ZM67.7926 36.0824H70.1861C71.294 36.0824 72.215 35.8741 72.9489 35.4574C73.6828 35.036 74.232 34.4276 74.5966 33.6321C74.9612 32.8319 75.1435 31.8565 75.1435 30.706C75.1435 29.5649 74.9612 28.5966 74.5966 27.8011C74.2367 27.0057 73.6993 26.402 72.9844 25.9901C72.2694 25.5781 71.3816 25.3722 70.321 25.3722H67.7926V36.0824ZM92.6665 30.7273C92.6665 32.2803 92.3825 33.6155 91.8143 34.733C91.2461 35.8456 90.4672 36.7027 89.4776 37.304C88.4928 37.9006 87.373 38.1989 86.1183 38.1989C84.8588 38.1989 83.7343 37.9006 82.7447 37.304C81.7598 36.7027 80.9833 35.8433 80.4151 34.7259C79.8469 33.6084 79.5629 32.2756 79.5629 30.7273C79.5629 29.1742 79.8469 27.8414 80.4151 26.7287C80.9833 25.6113 81.7598 24.7543 82.7447 24.1577C83.7343 23.5563 84.8588 23.2557 86.1183 23.2557C87.373 23.2557 88.4928 23.5563 89.4776 24.1577C90.4672 24.7543 91.2461 25.6113 91.8143 26.7287C92.3825 27.8414 92.6665 29.1742 92.6665 30.7273ZM90.4933 30.7273C90.4933 29.5436 90.3015 28.5469 89.918 27.7372C89.5392 26.9228 89.0183 26.3073 88.3555 25.8906C87.6973 25.4692 86.9516 25.2585 86.1183 25.2585C85.2802 25.2585 84.5321 25.4692 83.8739 25.8906C83.2158 26.3073 82.695 26.9228 82.3114 27.7372C81.9326 28.5469 81.7433 29.5436 81.7433 30.7273C81.7433 31.911 81.9326 32.91 82.3114 33.7244C82.695 34.5341 83.2158 35.1496 83.8739 35.571C84.5321 35.9877 85.2802 36.196 86.1183 36.196C86.9516 36.196 87.6973 35.9877 88.3555 35.571C89.0183 35.1496 89.5392 34.5341 89.918 33.7244C90.3015 32.91 90.4933 31.911 90.4933 30.7273ZM94.0604 25.3438V23.4545H105.317V25.3438H100.779V38H98.5916V25.3438H94.0604Z" fill="black"/>
<mask id="mask1_1_30" style="mask-type:luminance" maskUnits="userSpaceOnUse" x="13" y="11" width="35" height="38">
<path d="M13 11H48V49H13V11Z" fill="white"/>
</mask>
<g mask="url(#mask1_1_30)">
<path d="M30.5013 18.9702C26.7945 18.9702 23.7895 17.186 23.7895 14.9851C23.7895 12.7842 26.7945 11 30.5013 11C34.2081 11 37.2131 12.7842 37.2131 14.9851C37.2131 17.186 34.2081 18.9702 30.5013 18.9702Z" fill="#E6007A"/>
<path d="M30.5013 48.9973C26.7945 48.9973 23.7895 47.2131 23.7895 45.0122C23.7895 42.8113 26.7945 41.0271 30.5013 41.0271C34.2081 41.0271 37.2131 42.8113 37.2131 45.0122C37.2131 47.2131 34.2081 48.9973 30.5013 48.9973Z" fill="#E6007A"/>
<path d="M39.8547 24.4865C38.0012 21.2094 38.0133 17.66 39.8815 16.5588C41.7498 15.4576 44.7668 17.2216 46.6202 20.4987C48.4736 23.7759 48.4616 27.3253 46.5933 28.4265C44.7251 29.5277 41.7081 27.7637 39.8547 24.4865Z" fill="#E6007A"/>
<path d="M14.3854 39.4983C12.5319 36.2211 12.5429 32.6724 14.4099 31.5719C16.2769 30.4715 19.2929 32.236 21.1463 35.5132C22.9997 38.7904 22.9887 42.3391 21.1217 43.4396C19.2547 44.5401 16.2388 42.7755 14.3854 39.4983Z" fill="#E6007A"/>
<path d="M39.8806 43.4387C38.0123 42.3375 38.0003 38.7881 39.8537 35.5109C41.7071 32.2338 44.7241 30.4698 46.5924 31.571C48.4606 32.6722 48.4726 36.2216 46.6192 39.4987C44.7658 42.7759 41.7488 44.5399 39.8806 43.4387Z" fill="#E6007A"/>
<path d="M14.4084 28.4274C12.5414 27.3269 12.5304 23.7782 14.3838 20.501C16.2372 17.2238 19.2532 15.4592 21.1202 16.5597C22.9872 17.6601 22.9982 21.2089 21.1447 24.4861C19.2913 27.7633 16.2754 29.5278 14.4084 28.4274Z" fill="#E6007A"/>
</g>
</g>
</g>
<defs>
<clipPath id="clip0_1_30">
<rect width="128" height="63" fill="white"/>
</clipPath>
</defs>
</svg>
