<svg width="128" height="63" viewBox="0 0 128 63" fill="none" xmlns="http://www.w3.org/2000/svg">
<g clip-path="url(#clip0_1_2)">
<mask id="mask0_1_2" style="mask-type:luminance" maskUnits="userSpaceOnUse" x="0" y="0" width="128" height="63">
<path d="M128 0H0V63H128V0Z" fill="white"/>
</mask>
<g mask="url(#mask0_1_2)">
<path d="M118 0H10C4.47715 0 0 4.47715 0 10V53C0 58.5228 4.47715 63 10 63H118C123.523 63 128 58.5228 128 53V10C128 4.47715 123.523 0 118 0Z" fill="#3C3D3F" fill-opacity="0.12"/>
<path d="M67.3636 39H62.4347V24.4545H67.4631C68.9072 24.4545 70.1477 24.7457 71.1847 25.3281C72.2263 25.9058 73.0265 26.7367 73.5852 27.821C74.1439 28.9053 74.4233 30.2027 74.4233 31.7131C74.4233 33.2282 74.1416 34.5303 73.5781 35.6193C73.0194 36.7083 72.2121 37.544 71.1562 38.1264C70.1051 38.7088 68.8409 39 67.3636 39ZM65.0696 36.7202H67.2358C68.2491 36.7202 69.0942 36.5355 69.7713 36.1662C70.4484 35.7921 70.9574 35.2358 71.2983 34.4972C71.6392 33.7538 71.8097 32.8258 71.8097 31.7131C71.8097 30.6004 71.6392 29.6771 71.2983 28.9432C70.9574 28.2045 70.4531 27.6529 69.7855 27.2884C69.1226 26.919 68.2988 26.7344 67.3139 26.7344H65.0696V36.7202ZM89.924 31.7273C89.924 33.2945 89.6304 34.6368 89.0433 35.7543C88.4609 36.867 87.6655 37.7192 86.657 38.3111C85.6532 38.9029 84.5144 39.1989 83.2408 39.1989C81.9671 39.1989 80.826 38.9029 79.8175 38.3111C78.8137 37.7145 78.0182 36.8598 77.4311 35.7472C76.8487 34.6297 76.5575 33.2898 76.5575 31.7273C76.5575 30.16 76.8487 28.8201 77.4311 27.7074C78.0182 26.59 78.8137 25.7353 79.8175 25.1435C80.826 24.5516 81.9671 24.2557 83.2408 24.2557C84.5144 24.2557 85.6532 24.5516 86.657 25.1435C87.6655 25.7353 88.4609 26.59 89.0433 27.7074C89.6304 28.8201 89.924 30.16 89.924 31.7273ZM87.2749 31.7273C87.2749 30.6241 87.102 29.6937 86.7564 28.9361C86.4155 28.1738 85.942 27.5985 85.3359 27.2102C84.7299 26.8172 84.0315 26.6207 83.2408 26.6207C82.45 26.6207 81.7517 26.8172 81.1456 27.2102C80.5395 27.5985 80.0637 28.1738 79.718 28.9361C79.3771 29.6937 79.2067 30.6241 79.2067 31.7273C79.2067 32.8305 79.3771 33.7633 79.718 34.5256C80.0637 35.2831 80.5395 35.8584 81.1456 36.2514C81.7517 36.6397 82.45 36.8338 83.2408 36.8338C84.0315 36.8338 84.7299 36.6397 85.3359 36.2514C85.942 35.8584 86.4155 35.2831 86.7564 34.5256C87.102 33.7633 87.2749 32.8305 87.2749 31.7273ZM91.1314 26.6634V24.4545H102.737V26.6634H98.2408V39H95.6271V26.6634H91.1314Z" fill="black"/>
<mask id="mask1_1_2" style="mask-type:luminance" maskUnits="userSpaceOnUse" x="13" y="11" width="35" height="38">
<path d="M13 11H48V49H13V11Z" fill="white"/>
</mask>
<g mask="url(#mask1_1_2)">
<path d="M30.5013 18.9702C26.7945 18.9702 23.7895 17.186 23.7895 14.9851C23.7895 12.7842 26.7945 11 30.5013 11C34.2081 11 37.2131 12.7842 37.2131 14.9851C37.2131 17.186 34.2081 18.9702 30.5013 18.9702Z" fill="#E6007A"/>
<path d="M30.5013 48.9973C26.7945 48.9973 23.7895 47.2131 23.7895 45.0122C23.7895 42.8113 26.7945 41.0271 30.5013 41.0271C34.2081 41.0271 37.2131 42.8113 37.2131 45.0122C37.2131 47.2131 34.2081 48.9973 30.5013 48.9973Z" fill="#E6007A"/>
<path d="M39.8547 24.4865C38.0012 21.2094 38.0133 17.66 39.8815 16.5588C41.7498 15.4576 44.7668 17.2216 46.6202 20.4987C48.4736 23.7759 48.4616 27.3253 46.5933 28.4265C44.7251 29.5277 41.7081 27.7637 39.8547 24.4865Z" fill="#E6007A"/>
<path d="M14.3854 39.4983C12.5319 36.2211 12.5429 32.6724 14.4099 31.5719C16.2769 30.4715 19.2929 32.236 21.1463 35.5132C22.9997 38.7904 22.9887 42.3391 21.1217 43.4396C19.2547 44.5401 16.2388 42.7755 14.3854 39.4983Z" fill="#E6007A"/>
<path d="M39.8806 43.4387C38.0123 42.3375 38.0003 38.7881 39.8537 35.5109C41.7071 32.2338 44.7241 30.4698 46.5924 31.571C48.4606 32.6722 48.4726 36.2216 46.6192 39.4987C44.7658 42.7759 41.7488 44.5399 39.8806 43.4387Z" fill="#E6007A"/>
<path d="M14.4084 28.4274C12.5414 27.3269 12.5304 23.7782 14.3838 20.501C16.2372 17.2238 19.2532 15.4592 21.1202 16.5597C22.9872 17.6601 22.9982 21.2089 21.1447 24.4861C19.2913 27.7633 16.2754 29.5278 14.4084 28.4274Z" fill="#E6007A"/>
</g>
</g>
</g>
<defs>
<clipPath id="clip0_1_2">
<rect width="128" height="63" fill="white"/>
</clipPath>
</defs>
</svg>
