<svg width="128" height="63" viewBox="0 0 128 63" fill="none" xmlns="http://www.w3.org/2000/svg">
<g clip-path="url(#clip0_1_19)">
<mask id="mask0_1_19" style="mask-type:luminance" maskUnits="userSpaceOnUse" x="0" y="0" width="128" height="63">
<path d="M128 0H0V63H128V0Z" fill="white"/>
</mask>
<g mask="url(#mask0_1_19)">
<path d="M118 0H10C4.47715 0 0 4.47715 0 10V53C0 58.5228 4.47715 63 10 63H118C123.523 63 128 58.5228 128 53V10C128 4.47715 123.523 0 118 0Z" fill="#3C3D3F" fill-opacity="0.12"/>
<path d="M58.4347 24.4545H61.6591L65.9773 34.9943H66.1477L70.4659 24.4545H73.6903V39H71.1619V29.0071H71.027L67.0071 38.9574H65.1179L61.098 28.9858H60.9631V39H58.4347V24.4545ZM78.4276 39H75.6151L80.7358 24.4545H83.9886L89.1165 39H86.304L82.419 27.4375H82.3054L78.4276 39ZM78.5199 33.2969H86.1903V35.4134H78.5199V33.2969ZM88.6353 26.6634V24.4545H100.24V26.6634H95.7447V39H93.131V26.6634H88.6353ZM105.113 24.4545V39H102.478V24.4545H105.113ZM120.416 29.3622H117.76C117.684 28.9266 117.545 28.5407 117.341 28.2045C117.137 27.8636 116.884 27.5748 116.581 27.3381C116.278 27.1013 115.932 26.9238 115.544 26.8054C115.161 26.6823 114.746 26.6207 114.301 26.6207C113.51 26.6207 112.81 26.8196 112.199 27.2173C111.588 27.6103 111.11 28.188 110.764 28.9503C110.419 29.7079 110.246 30.6335 110.246 31.7273C110.246 32.84 110.419 33.7775 110.764 34.5398C111.115 35.2973 111.593 35.8703 112.199 36.2585C112.81 36.642 113.508 36.8338 114.294 36.8338C114.73 36.8338 115.137 36.777 115.516 36.6634C115.899 36.545 116.242 36.3722 116.545 36.1449C116.853 35.9176 117.111 35.6383 117.32 35.3068C117.533 34.9754 117.679 34.5966 117.76 34.1705L120.416 34.1847C120.317 34.8759 120.101 35.5246 119.77 36.1307C119.443 36.7367 119.015 37.2718 118.484 37.7358C117.954 38.1951 117.334 38.5549 116.624 38.8153C115.913 39.071 115.125 39.1989 114.259 39.1989C112.98 39.1989 111.839 38.9029 110.835 38.3111C109.831 37.7192 109.041 36.8646 108.463 35.7472C107.885 34.6297 107.597 33.2898 107.597 31.7273C107.597 30.16 107.888 28.8201 108.47 27.7074C109.053 26.59 109.846 25.7353 110.849 25.1435C111.853 24.5516 112.99 24.2557 114.259 24.2557C115.068 24.2557 115.821 24.3693 116.517 24.5966C117.213 24.8239 117.833 25.1577 118.378 25.598C118.922 26.0336 119.37 26.5687 119.72 27.2031C120.075 27.8329 120.307 28.5526 120.416 29.3622Z" fill="black"/>
<path d="M42 23.3C41.3 22.9 40.4 22.9 39.6 23.3L34 26.6L30.2 28.7L24.7 32C24 32.4 23.1 32.4 22.3 32L18 29.4C17.3 29 16.8 28.2 16.8 27.3V22.3C16.8 21.5 17.2 20.7 18 20.2L22.3 17.7C23 17.3 23.9 17.3 24.7 17.7L29 20.3C29.7 20.7 30.2 21.5 30.2 22.4V25.7L34 23.5V20.1C34 19.3 33.6 18.5 32.8 18L24.8 13.3C24.1 12.9 23.2 12.9 22.4 13.3L14.2 18.1C13.4 18.5 13 19.3 13 20.1V29.5C13 30.3 13.4 31.1 14.2 31.6L22.3 36.3C23 36.7 23.9 36.7 24.7 36.3L30.2 33.1L34 30.9L39.5 27.7C40.2 27.3 41.1 27.3 41.9 27.7L46.2 30.2C46.9 30.6 47.4 31.4 47.4 32.3V37.3C47.4 38.1 47 38.9 46.2 39.4L42 41.9C41.3 42.3 40.4 42.3 39.6 41.9L35.3 39.4C34.6 39 34.1 38.2 34.1 37.3V34.1L30.3 36.3V39.6C30.3 40.4 30.7 41.2 31.5 41.7L39.6 46.4C40.3 46.8 41.2 46.8 42 46.4L50.1 41.7C50.8 41.3 51.3 40.5 51.3 39.6V30.1C51.3 29.3 50.9 28.5 50.1 28L42 23.3Z" fill="#8247E5"/>
</g>
</g>
<defs>
<clipPath id="clip0_1_19">
<rect width="128" height="63" fill="white"/>
</clipPath>
</defs>
</svg>
