<svg width="128" height="63" viewBox="0 0 128 63" fill="none" xmlns="http://www.w3.org/2000/svg">
<g clip-path="url(#clip0_1_47)">
<mask id="mask0_1_47" style="mask-type:luminance" maskUnits="userSpaceOnUse" x="0" y="0" width="128" height="63">
<path d="M128 0H0V63H128V0Z" fill="white"/>
</mask>
<g mask="url(#mask0_1_47)">
<path d="M116.673 0H11.3274C5.07146 0 0 4.47715 0 10V53C0 58.5228 5.07146 63 11.3274 63H116.673C122.929 63 128 58.5228 128 53V10C128 4.47715 122.929 0 116.673 0Z" fill="white" fill-opacity="0.12"/>
<path d="M58.598 23.4545H61.2614L65.892 34.7614H66.0625L70.6932 23.4545H73.3565V38H71.2685V27.4744H71.1335L66.8438 37.9787H65.1108L60.821 27.4673H60.6861V38H58.598V23.4545ZM77.7759 38H75.4464L80.6808 23.4545H83.2163L88.4506 38H86.1211L82.0089 26.0966H81.8952L77.7759 38ZM78.1665 32.304H85.7234V34.1506H78.1665V32.304ZM88.1151 25.3438V23.4545H99.3722V25.3438H94.8338V38H92.6463V25.3438H88.1151ZM104.054 23.4545V38H101.86V23.4545H104.054ZM119.331 28.1847H117.115C117.03 27.7112 116.872 27.2945 116.64 26.9347C116.408 26.5748 116.123 26.2694 115.787 26.0185C115.451 25.7675 115.075 25.5781 114.658 25.4503C114.246 25.3224 113.808 25.2585 113.344 25.2585C112.506 25.2585 111.756 25.4692 111.093 25.8906C110.435 26.312 109.914 26.9299 109.53 27.7443C109.151 28.5587 108.962 29.553 108.962 30.7273C108.962 31.911 109.151 32.91 109.53 33.7244C109.914 34.5388 110.437 35.1544 111.1 35.571C111.763 35.9877 112.508 36.196 113.337 36.196C113.796 36.196 114.232 36.1345 114.644 36.0114C115.06 35.8835 115.437 35.6965 115.773 35.4503C116.109 35.2041 116.393 34.9034 116.625 34.5483C116.862 34.1884 117.025 33.7765 117.115 33.3125L119.331 33.3196C119.213 34.0346 118.983 34.6927 118.642 35.294C118.306 35.8906 117.873 36.4067 117.343 36.8423C116.817 37.2732 116.216 37.607 115.539 37.8438C114.862 38.0805 114.123 38.1989 113.323 38.1989C112.063 38.1989 110.941 37.9006 109.956 37.304C108.971 36.7027 108.195 35.8433 107.627 34.7259C107.063 33.6084 106.782 32.2756 106.782 30.7273C106.782 29.1742 107.066 27.8414 107.634 26.7287C108.202 25.6113 108.979 24.7543 109.963 24.1577C110.948 23.5563 112.068 23.2557 113.323 23.2557C114.095 23.2557 114.814 23.367 115.482 23.5895C116.154 23.8073 116.758 24.1293 117.293 24.5554C117.828 24.9768 118.271 25.4929 118.621 26.1037C118.971 26.7098 119.208 27.4034 119.331 28.1847Z" fill="black"/>
<path d="M42 23.3C41.3 22.9 40.4 22.9 39.6 23.3L34 26.6L30.2 28.7L24.7 32C24 32.4 23.1 32.4 22.3 32L18 29.4C17.3 29 16.8 28.2 16.8 27.3V22.3C16.8 21.5 17.2 20.7 18 20.2L22.3 17.7C23 17.3 23.9 17.3 24.7 17.7L29 20.3C29.7 20.7 30.2 21.5 30.2 22.4V25.7L34 23.5V20.1C34 19.3 33.6 18.5 32.8 18L24.8 13.3C24.1 12.9 23.2 12.9 22.4 13.3L14.2 18.1C13.4 18.5 13 19.3 13 20.1V29.5C13 30.3 13.4 31.1 14.2 31.6L22.3 36.3C23 36.7 23.9 36.7 24.7 36.3L30.2 33.1L34 30.9L39.5 27.7C40.2 27.3 41.1 27.3 41.9 27.7L46.2 30.2C46.9 30.6 47.4 31.4 47.4 32.3V37.3C47.4 38.1 47 38.9 46.2 39.4L42 41.9C41.3 42.3 40.4 42.3 39.6 41.9L35.3 39.4C34.6 39 34.1 38.2 34.1 37.3V34.1L30.3 36.3V39.6C30.3 40.4 30.7 41.2 31.5 41.7L39.6 46.4C40.3 46.8 41.2 46.8 42 46.4L50.1 41.7C50.8 41.3 51.3 40.5 51.3 39.6V30.1C51.3 29.3 50.9 28.5 50.1 28L42 23.3Z" fill="#8247E5"/>
</g>
</g>
<defs>
<clipPath id="clip0_1_47">
<rect width="128" height="63" fill="white"/>
</clipPath>
</defs>
</svg>
