<svg width="185" height="63" viewBox="0 0 185 63" fill="none" xmlns="http://www.w3.org/2000/svg">
<g clip-path="url(#clip0_4_2)">
<path fill-rule="evenodd" clip-rule="evenodd" d="M29.5208 12.5254L42.9792 20.0642C43.5935 20.4084 44.1038 20.9034 44.4585 21.4996C44.8132 22.0957 45 22.7719 45 23.4602V38.5398C45 39.2282 44.8132 39.9044 44.4585 40.5005C44.1038 41.0966 43.5935 41.5917 42.9792 41.9358L29.5208 49.4746C28.9064 49.8188 28.2094 50 27.5 50C26.7905 50 26.0936 49.8188 25.4792 49.4746L12.0208 41.9358C11.4064 41.5917 10.8962 41.0966 10.5415 40.5005C10.1867 39.9044 10 39.2282 10 38.5398V23.4602C10 22.7719 10.1867 22.0957 10.5415 21.4996C10.8962 20.9034 11.4064 20.4084 12.0208 20.0642L25.4792 12.5254C26.0936 12.1813 26.7905 12 27.5 12C28.2094 12 28.9064 12.1813 29.5208 12.5254Z" fill="url(#paint0_linear_4_2)"/>
<path fill-rule="evenodd" clip-rule="evenodd" d="M33.7685 37.929C32.0688 38.354 30.492 38.193 29.791 38.129C29.4456 38.098 28.8617 38.024 28.2388 37.935L27.2054 40.602L24.8321 40.162L25.8482 37.538L24.0416 37.203L23.0255 39.827L20.6523 39.387L21.6684 36.763L17 35.897L18.2516 34.015L19.6709 34.279C20.1479 34.367 20.3589 34.373 20.6089 34.28C20.859 34.186 20.9804 33.995 21.0425 33.834L23.673 27.04C23.8392 26.614 23.8334 26.49 23.6354 26.219C23.4374 25.947 22.7826 25.795 22.4084 25.726L21.0368 25.471L21.6973 23.767L26.3656 24.632L27.3846 22L29.7578 22.44L28.7388 25.072L30.5455 25.407L31.5659 22.775L33.9391 23.215L32.9071 25.879C34.6473 26.283 35.8743 26.76 36.795 27.561C37.9874 28.596 37.3991 29.901 37.243 30.21C37.0884 30.518 36.6548 31.087 36.1041 31.404C35.5535 31.722 34.4261 31.932 34.4261 31.932C34.4261 31.932 35.513 32.315 36.1605 32.887C36.8051 33.459 37.1173 34.314 36.6606 35.397C36.2068 36.481 35.4653 37.503 33.7685 37.929ZM28.8429 32.229C27.9608 32.0334 27.0656 31.8675 26.1604 31.732L24.796 35.254C24.796 35.254 26.3613 35.569 27.4366 35.711C28.5105 35.852 29.6682 35.87 30.2925 35.763C30.914 35.656 31.6945 35.455 32.0067 34.65C32.3189 33.844 31.6743 33.363 31.2884 33.127C30.9054 32.891 29.9977 32.501 28.8429 32.23V32.229ZM28.7663 30.464C29.6407 30.601 30.6148 30.634 31.378 30.504C32.1411 30.374 32.673 30.044 32.8825 29.442C33.0921 28.84 32.712 28.226 31.8159 27.838C30.9198 27.45 30.2723 27.313 29.5323 27.168C28.7923 27.023 28.0205 26.928 28.0205 26.928L26.792 30.098C26.792 30.098 27.8933 30.326 28.7663 30.464Z" fill="white"/>
<path fill-rule="evenodd" clip-rule="evenodd" d="M29.5208 12.5254L42.9792 20.0642C43.5935 20.4084 44.1038 20.9034 44.4585 21.4996C44.8132 22.0957 45 22.7719 45 23.4602V38.5398C45 39.2282 44.8132 39.9044 44.4585 40.5005C44.1038 41.0966 43.5935 41.5917 42.9792 41.9358L29.5208 49.4746C28.9064 49.8188 28.2094 50 27.5 50C26.7905 50 26.0936 49.8188 25.4792 49.4746L12.0208 41.9358C11.4064 41.5917 10.8962 41.0966 10.5415 40.5005C10.1867 39.9044 10 39.2282 10 38.5398V23.4602C10 22.7719 10.1867 22.0957 10.5415 21.4996C10.8962 20.9034 11.4064 20.4084 12.0208 20.0642L25.4792 12.5254C26.0936 12.1813 26.7905 12 27.5 12C28.2094 12 28.9064 12.1813 29.5208 12.5254Z" fill="url(#paint1_linear_4_2)"/>
<path d="M29.2278 28.6998V26.839H33.9906V24H21.0198V26.839H25.7849V28.6998C21.9121 28.8583 19 29.5443 19 30.3659C19 31.1875 21.9133 31.8734 25.7849 32.033V38H29.2301V32.032C33.0948 31.8734 36 31.1875 36 30.3669C36 29.5463 33.0948 28.8615 29.2301 28.7019L29.2278 28.6998ZM29.2301 31.5274V31.5253C29.1328 31.5315 28.6333 31.5585 27.5209 31.5585C26.632 31.5585 26.0063 31.5357 25.7861 31.5253V31.5274C22.3652 31.3927 19.8112 30.8591 19.8112 30.2219C19.8112 29.5847 22.3652 29.0531 25.7861 28.9164V30.9969C26.0097 31.0104 26.6506 31.0446 27.5359 31.0446C28.5974 31.0446 29.1316 31.0052 29.2301 30.9969V28.9174C32.644 29.0531 35.1923 29.5867 35.1923 30.2219C35.1923 30.856 32.6429 31.3906 29.2301 31.5274Z" fill="black"/>
<path d="M59.9517 23.4545H62.1534V33.0213C62.1534 34.0393 61.9143 34.9413 61.4361 35.7273C60.9579 36.5085 60.2855 37.1241 59.419 37.5739C58.5526 38.0189 57.5369 38.2415 56.3722 38.2415C55.2121 38.2415 54.1989 38.0189 53.3324 37.5739C52.4659 37.1241 51.7936 36.5085 51.3153 35.7273C50.8371 34.9413 50.598 34.0393 50.598 33.0213V23.4545H52.7926V32.8438C52.7926 33.5019 52.937 34.0866 53.2259 34.598C53.5194 35.1094 53.9337 35.5118 54.4688 35.8054C55.0038 36.0942 55.6383 36.2386 56.3722 36.2386C57.1108 36.2386 57.7476 36.0942 58.2827 35.8054C58.8224 35.5118 59.2344 35.1094 59.5185 34.598C59.8073 34.0866 59.9517 33.5019 59.9517 32.8438V23.4545ZM73.2773 27.2756C73.2016 26.6032 72.8891 26.0824 72.3398 25.7131C71.7906 25.339 71.0993 25.152 70.266 25.152C69.6694 25.152 69.1533 25.2467 68.7177 25.4361C68.2821 25.6207 67.9435 25.8764 67.7021 26.2031C67.4653 26.5251 67.3469 26.892 67.3469 27.304C67.3469 27.6496 67.4274 27.9479 67.5884 28.1989C67.7541 28.4498 67.9696 28.6605 68.2347 28.831C68.5046 28.9967 68.7934 29.1364 69.1012 29.25C69.409 29.3589 69.7049 29.4489 69.989 29.5199L71.4094 29.8892C71.8735 30.0028 72.3493 30.1567 72.837 30.3509C73.3247 30.545 73.7769 30.8007 74.1935 31.1179C74.6102 31.4351 74.9464 31.8281 75.2021 32.2969C75.4625 32.7656 75.5927 33.3267 75.5927 33.9801C75.5927 34.804 75.3796 35.5355 74.9535 36.1747C74.5321 36.8139 73.9189 37.3182 73.114 37.6875C72.3138 38.0568 71.3455 38.2415 70.2092 38.2415C69.1201 38.2415 68.1779 38.0687 67.3825 37.723C66.587 37.3774 65.9644 36.8873 65.5146 36.2528C65.0647 35.6136 64.8162 34.8561 64.7688 33.9801H66.9705C67.0131 34.5057 67.1836 34.9437 67.4819 35.294C67.7849 35.6397 68.1708 35.8977 68.6396 36.0682C69.113 36.2339 69.6315 36.3168 70.195 36.3168C70.8152 36.3168 71.3668 36.2197 71.8498 36.0256C72.3375 35.8267 72.721 35.5521 73.0004 35.2017C73.2797 34.8466 73.4194 34.4323 73.4194 33.9588C73.4194 33.5279 73.2963 33.1752 73.0501 32.9006C72.8086 32.6259 72.4795 32.3987 72.0629 32.2188C71.6509 32.0388 71.1845 31.8802 70.6637 31.7429L68.945 31.2741C67.7802 30.9569 66.8569 30.4905 66.1751 29.875C65.498 29.2595 65.1594 28.4451 65.1594 27.4318C65.1594 26.5937 65.3867 25.8622 65.8413 25.2372C66.2958 24.6122 66.9113 24.1269 67.6879 23.7812C68.4644 23.4309 69.3403 23.2557 70.3157 23.2557C71.3005 23.2557 72.1694 23.4285 72.9222 23.7741C73.6798 24.1198 74.2764 24.5956 74.712 25.2017C75.1476 25.803 75.3749 26.4943 75.3938 27.2756H73.2773ZM82.924 38H78.2152V23.4545H83.0732C84.4983 23.4545 85.7223 23.7457 86.745 24.3281C87.7678 24.9058 88.5514 25.7367 89.0959 26.821C89.6451 27.9006 89.9197 29.1955 89.9197 30.706C89.9197 32.2211 89.6428 33.5232 89.0888 34.6122C88.5395 35.7012 87.7441 36.5393 86.7024 37.1264C85.6607 37.7088 84.4013 38 82.924 38ZM80.4098 36.0824H82.8033C83.9112 36.0824 84.8321 35.8741 85.5661 35.4574C86.3 35.036 86.8492 34.4276 87.2138 33.6321C87.5784 32.8319 87.7607 31.8565 87.7607 30.706C87.7607 29.5649 87.5784 28.5966 87.2138 27.8011C86.8539 27.0057 86.3165 26.402 85.6016 25.9901C84.8866 25.5781 83.9988 25.3722 82.9382 25.3722H80.4098V36.0824ZM91.3065 25.3438V23.4545H102.564V25.3438H98.0252V38H95.8377V25.3438H91.3065ZM105.499 30.7273C105.499 28.947 105.733 27.3087 106.202 25.8125C106.67 24.3163 107.355 22.9361 108.254 21.6719H110.2C109.85 22.1406 109.523 22.7159 109.22 23.3977C108.917 24.0795 108.652 24.8277 108.425 25.642C108.197 26.4517 108.02 27.2921 107.892 28.1634C107.764 29.0298 107.7 29.8845 107.7 30.7273C107.7 31.8542 107.812 32.9953 108.034 34.1506C108.257 35.3059 108.557 36.3783 108.936 37.3679C109.315 38.3575 109.736 39.1648 110.2 39.7898H108.254C107.355 38.5256 106.67 37.1454 106.202 35.6491C105.733 34.1529 105.499 32.5123 105.499 30.7273ZM112.61 38V23.4545H117.936C118.969 23.4545 119.823 23.625 120.5 23.9659C121.177 24.3021 121.684 24.759 122.02 25.3366C122.356 25.9096 122.525 26.5559 122.525 27.2756C122.525 27.8816 122.413 28.393 122.191 28.8097C121.968 29.2216 121.67 29.553 121.296 29.804C120.926 30.0502 120.519 30.2301 120.074 30.3438V30.4858C120.557 30.5095 121.028 30.6657 121.488 30.9545C121.952 31.2386 122.335 31.6435 122.638 32.169C122.941 32.6946 123.093 33.3338 123.093 34.0866C123.093 34.83 122.917 35.4976 122.567 36.0895C122.221 36.6766 121.686 37.143 120.962 37.4886C120.238 37.8295 119.312 38 118.185 38H112.61ZM114.804 36.1179H117.972C119.023 36.1179 119.776 35.9143 120.23 35.5071C120.685 35.0999 120.912 34.5909 120.912 33.9801C120.912 33.5208 120.796 33.0994 120.564 32.7159C120.332 32.3324 120.001 32.027 119.57 31.7997C119.144 31.5724 118.637 31.4588 118.05 31.4588H114.804V36.1179ZM114.804 29.7472H117.745C118.237 29.7472 118.68 29.6525 119.073 29.4631C119.471 29.2737 119.785 29.0085 120.017 28.6676C120.254 28.322 120.373 27.9148 120.373 27.446C120.373 26.8447 120.162 26.3404 119.74 25.9332C119.319 25.526 118.673 25.3224 117.801 25.3224H114.804V29.7472ZM125.696 38V23.4545H134.815V25.3438H127.89V29.7756H134.339V31.6577H127.89V36.1108H134.9V38H125.696ZM137.746 38V23.4545H142.931C144.063 23.4545 145 23.6605 145.744 24.0724C146.487 24.4844 147.043 25.0478 147.413 25.7628C147.782 26.473 147.967 27.2732 147.967 28.1634C147.967 29.0582 147.78 29.8632 147.406 30.5781C147.036 31.2884 146.478 31.8518 145.729 32.2685C144.986 32.6804 144.051 32.8864 142.924 32.8864H139.359V31.0256H142.725C143.44 31.0256 144.02 30.9025 144.465 30.6562C144.91 30.4053 145.237 30.0644 145.445 29.6335C145.654 29.2027 145.758 28.7126 145.758 28.1634C145.758 27.6141 145.654 27.1264 145.445 26.7003C145.237 26.2741 144.908 25.9403 144.458 25.6989C144.013 25.4574 143.426 25.3366 142.697 25.3366H139.941V38H137.746ZM150.341 38V36.4091L155.262 31.3097C155.788 30.7557 156.221 30.2704 156.562 29.8537C156.908 29.4323 157.166 29.0322 157.336 28.6534C157.507 28.2746 157.592 27.8722 157.592 27.446C157.592 26.9631 157.478 26.5464 157.251 26.196C157.024 25.8409 156.714 25.5687 156.321 25.3793C155.928 25.1851 155.485 25.0881 154.993 25.0881C154.472 25.0881 154.017 25.1946 153.629 25.4077C153.241 25.6207 152.942 25.9214 152.734 26.3097C152.526 26.6979 152.422 27.1525 152.422 27.6733H150.326C150.326 26.7879 150.53 26.0137 150.937 25.3509C151.344 24.688 151.903 24.1742 152.613 23.8097C153.324 23.4403 154.131 23.2557 155.035 23.2557C155.949 23.2557 156.754 23.438 157.45 23.8026C158.151 24.1624 158.698 24.6548 159.091 25.2798C159.484 25.9001 159.68 26.6009 159.68 27.3821C159.68 27.9219 159.578 28.4498 159.375 28.9659C159.176 29.482 158.828 30.0573 158.331 30.6918C157.833 31.3215 157.142 32.0862 156.257 32.9858L153.366 36.0114V36.1179H159.914V38H150.341ZM167.67 38.2415C166.548 38.2367 165.589 37.9408 164.794 37.3537C163.998 36.7666 163.39 35.9119 162.968 34.7898C162.547 33.6676 162.336 32.3158 162.336 30.7344C162.336 29.1577 162.547 27.8106 162.968 26.6932C163.395 25.5758 164.005 24.7235 164.801 24.1364C165.601 23.5492 166.557 23.2557 167.67 23.2557C168.783 23.2557 169.737 23.5516 170.532 24.1435C171.328 24.7306 171.936 25.5829 172.358 26.7003C172.784 27.813 172.997 29.1577 172.997 30.7344C172.997 32.3205 172.786 33.6747 172.365 34.7969C171.943 35.9143 171.335 36.7689 170.539 37.3608C169.744 37.9479 168.788 38.2415 167.67 38.2415ZM167.67 36.3452C168.655 36.3452 169.424 35.8646 169.978 34.9034C170.537 33.9422 170.816 32.5526 170.816 30.7344C170.816 29.527 170.689 28.5066 170.433 27.6733C170.182 26.8352 169.82 26.2008 169.346 25.7699C168.877 25.3343 168.319 25.1165 167.67 25.1165C166.69 25.1165 165.921 25.5994 165.362 26.5653C164.803 27.5312 164.521 28.9209 164.517 30.7344C164.517 31.9465 164.642 32.9716 164.893 33.8097C165.149 34.643 165.511 35.2751 165.98 35.706C166.449 36.1321 167.012 36.3452 167.67 36.3452ZM179.629 30.7273C179.629 32.5123 179.394 34.1529 178.925 35.6491C178.457 37.1454 177.772 38.5256 176.873 39.7898H174.927C175.277 39.321 175.604 38.7457 175.907 38.0639C176.21 37.3821 176.475 36.6364 176.702 35.8267C176.93 35.0123 177.107 34.1695 177.235 33.2983C177.363 32.4271 177.427 31.5701 177.427 30.7273C177.427 29.6051 177.316 28.4664 177.093 27.3111C176.871 26.1558 176.57 25.0833 176.191 24.0938C175.812 23.1042 175.391 22.2969 174.927 21.6719H176.873C177.772 22.9361 178.457 24.3163 178.925 25.8125C179.394 27.3087 179.629 28.947 179.629 30.7273Z" fill="black"/>
<path d="M170.547 0H14.4531C6.47088 0 0 4.47715 0 10V53C0 58.5228 6.47088 63 14.4531 63H170.547C178.529 63 185 58.5228 185 53V10C185 4.47715 178.529 0 170.547 0Z" fill="white" fill-opacity="0.12"/>
</g>
<defs>
<linearGradient id="paint0_linear_4_2" x1="39.1734" y1="38.4223" x2="13.7416" y2="23.122" gradientUnits="userSpaceOnUse">
<stop stop-color="#FF9400"/>
<stop offset="1" stop-color="#FFBB21"/>
</linearGradient>
<linearGradient id="paint1_linear_4_2" x1="10" y1="12" x2="48.5981" y2="47.2024" gradientUnits="userSpaceOnUse">
<stop stop-color="#53AE94"/>
<stop offset="1" stop-color="#2E9175"/>
</linearGradient>
<clipPath id="clip0_4_2">
<rect width="185" height="63" fill="white"/>
</clipPath>
</defs>
</svg>
